<?xml version="1.0" encoding="UTF-8" standalone="no"?>
<!DOCTYPE svg PUBLIC "-//W3C//DTD SVG 1.1//EN" "http://www.w3.org/Graphics/SVG/1.1/DTD/svg11.dtd">
<svg width="100%" height="100%" viewBox="0 0 1080 1080" version="1.1" xmlns="http://www.w3.org/2000/svg" xmlns:xlink="http://www.w3.org/1999/xlink" xml:space="preserve" xmlns:serif="http://www.serif.com/" style="fill-rule:evenodd;clip-rule:evenodd;stroke-linejoin:round;stroke-miterlimit:2;">
    <g transform="matrix(1,0,0,1,-1093.36,0)">
        <g id="Square" transform="matrix(1,0,0,1,1093.36,0)">
            <rect x="0" y="0" width="1080" height="1080" style="fill:none;"/>
            <circle cx="540" cy="540" r="540" style="fill:rgb(234,234,234);"/>
            <g id="ethereum-eth-logo.svg" transform="matrix(0.612241,0,0,0.612241,540,540)">
                <g transform="matrix(1,0,0,1,-392.185,-638.695)">
                    <g id="Layer_x0020_1">
                        <g id="_1421394342400">
                            <g>
                                <path d="M392.07,0L383.5,29.11L383.5,873.74L392.07,882.29L784.13,650.54L392.07,0Z" style="fill:rgb(52,52,52);fill-rule:nonzero;"/>
                                <path d="M392.07,0L-0,650.54L392.07,882.29L392.07,0Z" style="fill:rgb(140,140,140);fill-rule:nonzero;"/>
                                <path d="M392.07,956.52L387.24,962.41L387.24,1263.28L392.07,1277.38L784.37,724.89L392.07,956.52Z" style="fill:rgb(60,60,59);fill-rule:nonzero;"/>
                                <path d="M392.07,1277.38L392.07,956.52L-0,724.89L392.07,1277.38Z" style="fill:rgb(140,140,140);fill-rule:nonzero;"/>
                                <path d="M392.07,882.29L784.13,650.54L392.07,472.33L392.07,882.29Z" style="fill:rgb(20,20,20);fill-rule:nonzero;"/>
                                <path d="M0,650.54L392.07,882.29L392.07,472.33L0,650.54Z" style="fill:rgb(57,57,57);fill-rule:nonzero;"/>
                            </g>
                        </g>
                    </g>
                </g>
            </g>
        </g>
    </g>
</svg>
