<?xml version="1.0" encoding="UTF-8" standalone="no"?>
<!DOCTYPE svg PUBLIC "-//W3C//DTD SVG 1.1//EN" "http://www.w3.org/Graphics/SVG/1.1/DTD/svg11.dtd">
<svg width="100%" height="100%" viewBox="0 0 1080 1080" version="1.1" xmlns="http://www.w3.org/2000/svg" xmlns:xlink="http://www.w3.org/1999/xlink" xml:space="preserve" xmlns:serif="http://www.serif.com/" style="fill-rule:evenodd;clip-rule:evenodd;stroke-linejoin:round;stroke-miterlimit:2;">
    <rect id="Square" x="0" y="0" width="1080" height="1080" style="fill:none;"/>
    <g id="Square1" serif:id="Square">
        <circle cx="540" cy="540" r="540" style="fill:rgb(108,0,246);"/>
        <g transform="matrix(3.6851,0,0,3.6851,211.842,243.165)">
            <path d="M66.8,54.7L50.1,45L0,74.1L0,132.1L50.1,161.1L100.2,132.1L100.2,41.9L128,25.8L155.8,41.9L155.8,74.1L128,90.2L111.3,80.5L111.3,106.3L128,116L178.1,87L178.1,29L128,0L77.9,29L77.9,119.2L50.1,135.3L22.3,119.2L22.3,86.9L50.1,70.8L66.8,80.5L66.8,54.7Z" style="fill:white;fill-rule:nonzero;"/>
        </g>
    </g>
</svg>
