<?xml version="1.0" encoding="UTF-8" standalone="no"?>
<!DOCTYPE svg PUBLIC "-//W3C//DTD SVG 1.1//EN" "http://www.w3.org/Graphics/SVG/1.1/DTD/svg11.dtd">
<svg width="100%" height="100%" viewBox="0 0 64 64" version="1.1" xmlns="http://www.w3.org/2000/svg" xmlns:xlink="http://www.w3.org/1999/xlink" xml:space="preserve" xmlns:serif="http://www.serif.com/" style="fill-rule:evenodd;clip-rule:evenodd;stroke-linejoin:round;stroke-miterlimit:2;">
    <g transform="matrix(1,0,0,1,-70.4576,0)">
        <g id="Artboard1" transform="matrix(1,0,0,1,70.4576,0)">
            <rect x="0" y="0" width="64" height="64" style="fill:none;"/>
            <g transform="matrix(0.256,0,0,0.256,0,0)">
                <path d="M250,125C250,194.035 194.035,250 125,250C55.965,250 0,194.035 0,125C0,55.965 55.965,0 125,0C194.035,0 250,55.965 250,125Z" style="fill:rgb(38,161,123);"/>
            </g>
            <g transform="matrix(0.256,0,0,0.256,0,0)">
                <path d="M140.016,135.805L140.016,135.789C139.156,135.852 134.726,136.117 124.844,136.117C116.954,136.117 111.398,135.883 109.445,135.789L109.445,135.813C79.07,134.477 56.398,129.188 56.398,122.859C56.398,116.539 79.07,111.25 109.445,109.891L109.445,130.547C111.43,130.687 117.117,131.023 124.977,131.023C134.407,131.023 139.133,130.633 140.016,130.555L140.016,109.906C170.328,111.258 192.946,116.546 192.946,122.859C192.946,129.188 170.328,134.461 140.016,135.805M140.016,107.758L140.016,89.273L182.313,89.273L182.313,61.086L67.147,61.086L67.147,89.273L109.444,89.273L109.444,107.75C75.069,109.328 49.218,116.14 49.218,124.297C49.218,132.454 75.069,139.257 109.444,140.844L109.444,200.078L140.014,200.078L140.014,140.828C174.334,139.25 200.124,132.445 200.124,124.297C200.124,116.149 174.334,109.344 140.014,107.757" style="fill:white;"/>
            </g>
        </g>
    </g>
</svg>
